# xmcd
#
# Track frame offsets:
#	150
#	17183
#	28982
#	41342
#	57497
#	68147
#	79815
#	91608
#	102805
#	115085
#	127672
#	147494
#	160797
#	175842
#	188037
#	200791
#	214800
#	224510
#	237713
#	251653
#	267561
#	279638
#	294447
#	308447
#	319795
#
# Disc length: 4390
#
# Revision: 1
# Processed by: cddbd v1.5.1PL0 Copyright (c) Steve Scherf et al.
# Submitted via: CDex 1.51
# Normalized: r0:DSETVAR1
#
DISCID=75112419
DTITLE=Various Artist - 25 Country Hits
DYEAR=2000
DGENRE=Country
TTITLE0=Roy Acuff and The Nitty Gritty Dirt Band - I Saw The Light
TTITLE1=Johnny Cash - Ring Of Fire
TTITLE2=Boxcar Willie - 'T' For Texas (Blue Yodel No 1)
TTITLE3=Billie Jo Spears - Blanket To The Ground
TTITLE4=Creedence Clearwater Revival - Bad Moon Rising
TTITLE5=Dave Dudley - Six Days On The Road
TTITLE6=Ferlin Husky - Money Greases The Wheels
TTITLE7=Freddy Quinn - Older Men Make Better Lovers
TTITLE8=George Jones - A Girl I Used To Know
TTITLE9=Johnny Cash - Folsom Prison Blues
TTITLE10=Kenny Rogers - Coward Of The County
TTITLE11=Merle Haggard and The Strangers - The Fightin' Side Of Me
TTITLE12=New World - Tom Tom Turnaround
TTITLE13=Penny DeHaven - Land Mark Tavern
TTITLE14=Ronnie Rogers - Dan D Derby
TTITLE15=Tom Overland - I Love Your Lovely Smile
TTITLE16=Waylon Jennings - Sweet Mental Revenge
TTITLE17=Creedence Clearwater Revival - Cotton Field
TTITLE18=Dave Dudley - Morning Sun
TTITLE19=Kenny Rogers - The Gambler
TTITLE20=The Blues Brothers - Theme From Rawhide
TTITLE21=Dave Dudley - Deutschland Autobahn
TTITLE22=Crystal Gayle - River Road
TTITLE23=Kenny Rogers - Me And Bobby McGee
TTITLE24=Tammy Wynette - Stand By Your Man
EXTD=YEAR: 2000
EXTT0=
EXTT1=
EXTT2=
EXTT3=
EXTT4=
EXTT5=
EXTT6=
EXTT7=
EXTT8=
EXTT9=
EXTT10=
EXTT11=
EXTT12=
EXTT13=
EXTT14=
EXTT15=
EXTT16=
EXTT17=
EXTT18=
EXTT19=
EXTT20=
EXTT21=
EXTT22=
EXTT23=
EXTT24=
PLAYORDER=
